<?xml version="1.0" standalone="no"?>
<!DOCTYPE svg PUBLIC "-//W3C//DTD SVG 20010904//EN"
 "http://www.w3.org/TR/2001/REC-SVG-20010904/DTD/svg10.dtd">
<svg version="1.0" xmlns="http://www.w3.org/2000/svg"
 width="1024.000000pt" height="1024.000000pt" viewBox="0 0 1024.000000 1024.000000"
 preserveAspectRatio="xMidYMid meet">
<metadata>
Created by potrace 1.11, written by Peter Selinger 2001-2013
</metadata>
<g transform="translate(0.000000,1024.000000) scale(0.100000,-0.100000)"
fill="#000000" stroke="none">
<path d="M5688 7213 l-58 -4 0 -368 c0 -330 2 -370 16 -375 15 -6 15 -8 0 -31
-9 -13 -16 -32 -16 -41 0 -15 2 -15 23 0 12 8 42 25 67 36 24 11 51 27 60 34
8 7 28 16 43 20 27 6 28 9 22 45 -5 30 -3 40 10 45 23 8 38 -3 32 -25 -9 -34
14 -49 78 -50 150 -2 205 12 205 51 0 27 27 45 45 30 20 -17 38 -2 31 26 -5
18 -2 24 11 25 10 0 36 1 58 2 29 2 41 7 43 20 4 19 -16 21 -87 8 -61 -12 -91
0 -91 36 0 23 8 33 45 53 48 26 57 45 26 55 -24 7 -49 -3 -89 -37 -18 -15 -39
-28 -46 -28 -7 0 -23 -12 -37 -26 l-24 -26 25 -20 25 -20 -28 -20 c-15 -11
-27 -28 -27 -39 0 -12 -12 -24 -35 -33 -37 -16 -65 -12 -65 8 0 6 -13 27 -28
45 l-28 33 -37 -20 c-59 -31 -102 -7 -95 55 2 21 13 30 58 47 78 30 109 49
160 98 50 47 89 66 167 78 28 4 57 11 63 15 22 14 165 14 180 0 8 -7 60 -21
115 -30 104 -17 165 -37 165 -53 0 -17 -31 -22 -101 -16 -60 6 -69 5 -69 -10
0 -27 39 -59 63 -51 12 4 34 8 49 9 14 0 37 11 50 23 13 12 39 23 58 25 27 2
35 8 40 28 7 28 37 35 32 7 -4 -23 25 -33 51 -18 39 25 114 39 216 40 78 0
108 4 121 16 22 20 56 19 131 -5 68 -21 80 -19 61 8 -24 34 -23 42 5 66 36 33
58 40 81 27 27 -14 37 -118 14 -144 -23 -26 -6 -33 33 -14 38 18 42 32 23 84
-15 42 -1 61 30 42 18 -11 24 -10 41 5 15 14 28 16 65 11 42 -7 46 -6 46 14 0
19 6 21 51 21 33 0 63 7 83 19 20 12 71 24 141 33 l110 14 -66 32 c-163 76
-293 101 -495 94 -140 -4 -162 -3 -177 12 -15 15 -57 16 -494 13 -263 -3 -482
-5 -488 -5 -5 -1 -149 0 -320 2 -170 2 -336 1 -367 -1z m1432 -28 c0 -9 -9
-15 -25 -15 -24 0 -32 10 -18 23 12 13 43 7 43 -8z m-860 -25 c11 -7 7 -10
-18 -10 -20 0 -31 4 -27 10 8 13 26 13 45 0z m-250 -10 c8 0 47 2 87 5 41 2
75 0 78 -5 4 -6 -5 -10 -18 -10 -13 0 -35 -8 -48 -19 -53 -41 -67 -44 -103
-22 -18 12 -40 21 -48 21 -19 0 -40 24 -30 34 4 4 20 5 37 1 16 -3 37 -6 45
-5z m1347 -76 c-3 -3 -12 -4 -19 -1 -8 3 -5 6 6 6 11 1 17 -2 13 -5z m-157
-26 c-139 -60 -150 -67 -150 -92 0 -29 -25 -35 -61 -16 -29 16 -24 26 34 63
67 43 101 55 157 56 41 0 43 -1 20 -11z"/>
<path d="M3742 7111 c-7 -4 -24 -6 -37 -3 -14 2 -36 -4 -54 -17 -16 -12 -36
-21 -44 -21 -8 0 -25 -8 -38 -19 -15 -11 -47 -20 -81 -23 -32 -3 -61 -8 -65
-12 -12 -11 29 -37 47 -30 28 11 150 13 178 3 81 -32 129 -38 243 -29 72 5
121 4 132 -2 27 -14 33 -2 19 35 -7 19 -12 41 -12 50 0 14 -12 17 -77 17 -77
0 -151 22 -167 49 -8 13 -26 14 -44 2z"/>
<path d="M3331 7021 c-19 -12 -5 -31 24 -31 13 0 27 5 31 11 7 11 -12 29 -31
29 -5 0 -16 -4 -24 -9z"/>
<path d="M7725 6940 c3 -5 13 -10 21 -10 8 0 14 5 14 10 0 6 -9 10 -21 10 -11
0 -17 -4 -14 -10z"/>
<path d="M2692 6873 c2 -11 14 -19 31 -21 34 -4 35 11 2 26 -34 16 -37 15 -33
-5z"/>
<path d="M2822 6858 c6 -18 28 -21 28 -4 0 9 -7 16 -16 16 -9 0 -14 -5 -12
-12z"/>
<path d="M4068 6780 c-15 -11 -30 -20 -35 -20 -4 0 -26 -10 -48 -22 -59 -32
-136 -30 -197 6 -39 23 -54 26 -90 21 -30 -5 -52 -2 -73 9 -38 20 -84 21 -91
1 -4 -8 -17 -15 -29 -15 -13 0 -27 -4 -30 -10 -3 -5 -17 -10 -31 -10 -19 0
-24 5 -24 26 0 14 -3 24 -7 22 -5 -2 -26 -12 -48 -22 -105 -46 -124 -57 -150
-88 l-27 -32 38 -32 c21 -18 54 -35 75 -38 20 -3 56 -15 80 -26 24 -11 58 -20
74 -20 36 0 50 -9 59 -35 12 -37 44 -67 68 -63 20 3 23 8 20 45 -2 34 1 43 18
48 23 7 50 32 50 45 0 5 -8 17 -18 27 -13 13 -19 31 -18 63 l1 45 50 2 c59 3
137 -29 156 -63 22 -43 90 -49 105 -9 4 8 12 15 19 15 14 0 77 -66 94 -98 6
-11 22 -23 35 -26 14 -3 42 -16 62 -28 34 -20 36 -24 31 -59 -3 -25 0 -42 9
-50 27 -22 33 -4 15 51 -10 30 -37 120 -61 200 -24 80 -47 149 -50 153 -4 4
-18 -2 -32 -13z"/>
<path d="M2677 6703 c-13 -12 -7 -23 13 -23 11 0 20 7 20 15 0 15 -21 21 -33
8z"/>
<path d="M3092 6479 c3 -24 33 -48 44 -36 11 10 -17 57 -33 57 -9 0 -13 -8
-11 -21z"/>
<path d="M4105 6418 c-32 -19 -114 -29 -135 -16 -21 14 -69 -3 -97 -34 -17
-19 -17 -19 12 -12 56 14 70 11 73 -18 3 -21 10 -29 30 -34 68 -15 69 -26 5
-48 -57 -19 -56 -19 -50 -1 10 26 -9 25 -68 0 -36 -16 -59 -33 -62 -46 -3 -11
-22 -28 -42 -39 -58 -30 -105 -84 -99 -115 5 -23 -2 -32 -62 -76 -37 -27 -70
-56 -74 -64 -3 -8 4 -36 14 -61 11 -25 20 -54 20 -65 0 -26 -25 -24 -45 4 -16
22 -16 22 -9 -8 18 -74 21 -79 50 -87 59 -18 124 -52 124 -65 0 -19 -19 -16
-54 10 -42 32 -86 43 -86 22 0 -18 66 -273 80 -311 5 -13 14 -24 19 -24 12 0
41 29 41 41 0 12 82 48 93 42 5 -3 5 -19 2 -35 -5 -21 -4 -28 4 -24 6 4 9 11
6 15 -2 5 5 17 16 27 19 17 21 17 55 -1 22 -12 56 -19 97 -19 61 -1 77 -6 107
-32 94 -81 98 -84 134 -84 56 0 91 -23 116 -77 12 -27 25 -55 29 -63 4 -8 29
-20 56 -27 26 -7 55 -19 64 -27 9 -8 41 -18 71 -21 30 -4 65 -14 77 -21 26
-16 37 -18 28 -4 -5 8 -108 344 -160 520 -7 25 -25 83 -40 130 -14 47 -30 99
-35 115 -5 17 -41 136 -80 265 -40 129 -74 245 -77 257 -4 18 -14 23 -69 28
-35 4 -64 11 -64 15 0 4 9 19 20 33 11 14 20 30 20 36 0 14 -30 14 -55 -1z
m-270 -818 c0 -10 -12 -16 -37 -18 -37 -3 -51 12 -31 32 13 13 68 2 68 -14z"/>
<path d="M6875 6365 l-40 -13 75 -1 c72 -1 74 0 46 14 -32 17 -28 17 -81 0z"/>
<path d="M3327 6352 c-38 -17 -47 -44 -16 -50 11 -2 19 6 23 22 14 56 58 15
62 -58 2 -38 24 -78 24 -43 0 21 29 67 42 67 5 0 14 -13 19 -29 14 -40 35 -45
69 -19 39 31 33 42 -23 46 -37 2 -51 8 -64 28 -17 26 -63 55 -85 53 -7 0 -30
-8 -51 -17z"/>
<path d="M6540 6308 c-6 -7 -17 -22 -25 -33 -15 -20 -15 -20 -38 8 -12 15 -32
27 -44 27 -32 0 -93 -79 -93 -119 l0 -32 48 6 c26 4 61 12 78 17 24 9 42 7 79
-6 27 -9 52 -16 57 -16 11 0 10 88 -2 95 -5 3 -7 19 -3 35 5 27 3 30 -20 30
-15 0 -31 -6 -37 -12z"/>
<path d="M5947 6283 c-23 -22 4 -54 85 -105 28 -18 36 -42 19 -53 -5 -3 -22 6
-37 20 -15 14 -33 25 -40 25 -7 0 -36 20 -64 45 l-51 45 -32 -16 c-18 -10 -51
-16 -75 -15 -36 1 -45 -2 -49 -19 -3 -10 -20 -28 -39 -39 -32 -19 -34 -23 -34
-76 l0 -55 43 7 c23 3 83 7 132 7 l90 1 0 -38 c0 -44 23 -67 65 -67 14 0 37
-8 50 -17 26 -19 86 -43 107 -43 7 0 18 12 25 28 16 32 42 34 127 9 66 -19 69
-22 46 -47 -17 -18 -17 -20 0 -26 19 -8 36 12 28 31 -5 14 49 28 117 29 43 1
46 3 69 49 27 54 23 97 -9 97 -10 0 -22 -5 -26 -11 -3 -6 -16 -8 -28 -4 -11 4
-45 8 -74 9 -44 1 -57 6 -73 26 -10 14 -19 35 -19 46 0 35 -25 49 -60 34 -33
-14 -36 -21 -18 -49 9 -15 9 -23 -1 -35 -8 -9 -17 -16 -22 -16 -11 0 -65 82
-72 112 -5 17 -20 31 -48 43 -23 11 -57 32 -77 47 -36 29 -44 32 -55 21z m-85
-155 c-6 -6 -15 -9 -18 -5 -4 3 -4 14 0 23 5 13 9 15 18 6 9 -9 9 -15 0 -24z
m139 -53 c-1 -15 -24 -12 -29 3 -3 9 2 13 12 10 10 -1 17 -7 17 -13z"/>
<path d="M3597 6230 c-14 -11 -36 -20 -50 -20 -25 0 -52 -22 -40 -33 13 -14
45 -6 78 19 19 14 39 23 45 19 12 -7 40 12 40 26 0 16 -47 9 -73 -11z"/>
<path d="M2424 6148 c-3 -18 -15 -57 -24 -88 -10 -30 -27 -86 -39 -125 -11
-38 -48 -160 -82 -270 -34 -110 -65 -213 -69 -230 -5 -16 -16 -52 -25 -80 -9
-27 -22 -70 -29 -95 -8 -25 -44 -144 -81 -265 -36 -121 -73 -240 -80 -265 -7
-25 -24 -81 -38 -125 -23 -73 -46 -147 -123 -405 -14 -47 -37 -121 -51 -165
-14 -44 -29 -93 -33 -110 -5 -16 -20 -68 -35 -115 -15 -47 -33 -105 -40 -130
-23 -79 -116 -382 -141 -460 -25 -76 -30 -110 -16 -110 4 1 18 7 32 14 16 9
42 12 76 9 35 -4 61 -1 85 11 65 30 380 67 564 66 33 0 60 7 79 19 21 14 36
17 60 11 17 -4 50 -11 72 -14 l41 -6 17 58 c9 31 21 71 25 87 5 17 30 107 56
200 26 94 53 180 61 193 l14 22 506 0 c459 0 506 1 500 16 -15 40 -17 64 -5
86 7 12 12 32 11 44 -2 11 9 32 23 48 25 27 34 66 15 66 -17 0 -4 113 19 165
13 30 24 77 26 116 2 36 8 76 13 90 14 35 24 212 14 227 -7 11 -98 13 -455 12
l-447 -1 0 23 c0 13 25 122 56 243 31 121 60 236 65 255 4 19 15 60 23 90 34
127 67 262 64 264 -2 1 -34 15 -73 31 -99 40 -125 60 -125 96 0 22 -18 47 -84
116 -47 49 -95 103 -108 122 -13 19 -28 36 -34 38 -19 6 -25 -29 -9 -51 103
-141 112 -157 75 -134 -11 7 -20 17 -20 23 0 6 -13 22 -30 37 -16 14 -30 36
-30 47 0 12 -4 21 -10 21 -5 0 -24 24 -41 54 -22 41 -39 58 -63 66 -39 13
-126 127 -126 165 0 36 -17 31 -26 -7z"/>
<path d="M3165 5852 l-40 -28 -3 -82 c-3 -68 0 -87 16 -106 l18 -24 29 116
c15 65 30 125 33 135 6 24 -6 21 -53 -11z"/>
<path d="M6490 5821 c0 -18 47 -120 61 -131 12 -10 29 -49 29 -68 0 -11 7 -25
15 -32 13 -11 15 -3 15 59 0 66 -3 75 -37 123 -21 29 -42 56 -48 60 -18 14
-35 8 -35 -11z"/>
<path d="M8606 5711 c-3 -5 -23 -12 -43 -16 -21 -4 -44 -12 -51 -18 -8 -6 -39
-10 -70 -10 -49 2 -61 -2 -84 -25 -16 -14 -28 -31 -28 -39 0 -7 20 -35 45 -63
37 -42 45 -58 45 -90 0 -31 -5 -42 -22 -51 -13 -6 -33 -20 -45 -31 l-21 -20
-57 54 c-31 29 -61 53 -68 53 -6 0 -18 -12 -25 -27 -7 -16 -17 -28 -23 -28 -5
0 -9 12 -9 28 0 37 -25 115 -38 120 -5 1 -13 -2 -17 -7 -3 -6 -15 -11 -26 -11
-14 0 -19 7 -19 29 0 18 -12 44 -34 70 -19 22 -36 46 -39 53 -3 11 -11 11 -39
1 -19 -7 -44 -13 -57 -13 -12 0 -24 -6 -27 -14 -3 -8 -39 -41 -81 -73 -100
-77 -105 -82 -98 -103 17 -54 -46 -168 -78 -141 -8 6 -17 25 -21 41 -5 27 -29
41 -38 22 -9 -22 -91 -73 -148 -92 -57 -19 -94 -23 -286 -27 l-222 -6 -30 -43
c-17 -24 -48 -54 -70 -67 -37 -24 -124 -120 -150 -165 -15 -26 -8 -100 13
-142 7 -14 15 -49 17 -77 6 -61 -6 -85 -55 -108 -50 -24 -100 -74 -91 -94 4
-9 9 -33 12 -53 4 -34 1 -39 -24 -48 -34 -13 -44 -26 -44 -58 0 -29 -79 -123
-127 -153 -19 -12 -54 -22 -81 -24 -26 -1 -62 -5 -79 -9 -45 -10 -73 1 -73 27
0 21 -45 117 -60 127 -15 11 -28 47 -35 95 -4 28 -23 79 -42 114 -40 71 -40
100 -3 176 18 38 20 51 11 97 -13 72 -34 118 -66 148 -43 40 -47 54 -34 119
15 73 5 91 -50 91 -27 0 -44 7 -61 25 -25 27 -75 34 -111 15 -19 -10 -19 -32
-19 -980 l0 -968 63 -7 c34 -3 123 -1 197 5 173 15 157 15 284 0 108 -12 125
-11 266 20 25 5 73 9 108 10 l63 0 -1 577 c-1 465 1 578 12 584 7 5 37 9 66 9
40 0 52 3 52 15 0 9 7 29 15 45 10 20 12 36 6 52 -12 32 1 52 48 79 21 12 44
33 50 46 7 15 18 23 29 21 24 -5 21 -54 -11 -161 -15 -48 -27 -89 -27 -91 0
-1 66 -6 147 -10 81 -3 151 -10 155 -14 4 -4 69 -154 144 -332 74 -179 143
-343 153 -365 10 -22 56 -129 101 -237 72 -171 85 -196 95 -181 10 13 31 18
92 21 43 2 87 8 99 13 21 11 131 7 191 -6 24 -5 36 -2 50 12 37 37 67 52 89
47 12 -3 32 -1 43 6 17 9 29 6 64 -15 74 -43 133 -56 220 -49 42 4 79 10 82
13 2 4 -12 43 -32 86 -64 142 -180 398 -223 490 -23 50 -60 131 -82 180 -46
103 -70 156 -126 275 -66 142 -85 189 -79 203 3 8 29 28 59 44 68 39 147 98
214 162 39 37 51 55 47 70 -4 17 -1 21 19 21 18 0 33 11 52 38 30 44 32 60 11
88 -21 28 -19 64 4 64 10 0 38 15 63 34 39 30 47 43 66 108 43 145 79 428 54
428 -6 0 -13 -4 -16 -9z m-160 -116 c-3 -8 -10 -15 -16 -15 -14 0 -12 37 3 43
15 5 21 -8 13 -28z m-262 -257 c10 -18 34 -46 52 -63 26 -23 35 -41 40 -79 l7
-49 -23 16 c-25 18 -60 70 -60 91 0 8 -11 28 -25 44 -24 28 -34 72 -17 72 4 0
16 -15 26 -32z m-474 -13 c15 -18 9 -50 -9 -50 -19 0 -36 29 -28 49 8 20 21
21 37 1z m443 -113 c23 -21 58 -48 78 -60 20 -12 42 -36 49 -52 7 -18 22 -33
36 -36 13 -3 24 -12 24 -19 0 -30 -13 -75 -22 -75 -25 0 -73 49 -123 124 -31
46 -69 95 -85 110 -17 14 -30 31 -30 36 0 21 32 8 73 -28z"/>
<path d="M6452 5108 c-7 -7 -12 -22 -12 -35 0 -17 6 -23 23 -23 25 0 48 34 40
58 -6 15 -35 16 -51 0z"/>
<path d="M4658 4809 c-29 -37 -36 -54 -41 -105 -6 -80 -47 -161 -85 -170 -97
-22 -166 -72 -155 -113 3 -14 -9 -34 -39 -68 -24 -26 -52 -60 -61 -75 -28 -45
-61 -62 -97 -50 -36 13 -43 4 -28 -36 16 -42 -1 -60 -63 -68 -40 -5 -52 -12
-62 -33 -10 -20 -20 -26 -40 -24 -26 2 -27 -1 -25 -34 2 -31 -3 -40 -37 -69
l-39 -32 24 -20 25 -20 -44 -40 c-64 -57 -54 -72 47 -72 53 0 83 -4 90 -13 10
-12 69 -205 79 -258 4 -22 9 -25 35 -21 23 4 29 1 26 -9 -3 -8 -14 -15 -25
-17 -19 -3 -18 -9 21 -153 l41 -150 35 -9 c97 -26 189 -35 350 -35 197 0 313
17 403 59 30 14 66 26 80 26 15 0 36 9 47 20 11 11 29 20 40 20 11 0 20 5 20
10 0 6 -20 77 -45 158 -25 81 -80 260 -121 397 -41 138 -79 264 -85 280 -38
118 -70 221 -135 440 -41 138 -81 267 -88 289 l-13 38 -35 -43z"/>
<path d="M6505 4810 c-3 -5 -1 -10 4 -10 6 0 11 5 11 10 0 6 -2 10 -4 10 -3 0
-8 -4 -11 -10z"/>
</g>
</svg>
