<svg xmlns="http://www.w3.org/2000/svg" xmlns:xlink="http://www.w3.org/1999/xlink" viewBox="0 0 250 250" width="250" height="250" >
    
    <clipPath id="clipz12z225">
      






<circle cx="97.22222222222224" cy="13.88888888888889" r="3.0864197530864197" fill="black" />
<circle cx="106.48148148148148" cy="13.88888888888889" r="3.0864197530864197" fill="black" />
<circle cx="115.74074074074075" cy="13.88888888888889" r="3.0864197530864197" fill="black" />
<circle cx="143.5185185185185" cy="13.88888888888889" r="3.0864197530864197" fill="black" />
<circle cx="152.77777777777777" cy="13.88888888888889" r="3.0864197530864197" fill="black" />
<circle cx="162.03703703703704" cy="13.88888888888889" r="3.0864197530864197" fill="black" />









<circle cx="97.22222222222224" cy="23.14814814814815" r="3.0864197530864197" fill="black" />
<circle cx="106.48148148148148" cy="23.14814814814815" r="3.0864197530864197" fill="black" />
<circle cx="125.00000000000001" cy="23.14814814814815" r="3.0864197530864197" fill="black" />
<circle cx="134.25925925925927" cy="23.14814814814815" r="3.0864197530864197" fill="black" />
<circle cx="162.03703703703704" cy="23.14814814814815" r="3.0864197530864197" fill="black" />







<circle cx="87.96296296296298" cy="32.407407407407405" r="3.0864197530864197" fill="black" />
<circle cx="125.00000000000001" cy="32.407407407407405" r="3.0864197530864197" fill="black" />
<circle cx="134.25925925925927" cy="32.407407407407405" r="3.0864197530864197" fill="black" />










<circle cx="87.96296296296298" cy="41.66666666666667" r="3.0864197530864197" fill="black" />
<circle cx="97.22222222222224" cy="41.66666666666667" r="3.0864197530864197" fill="black" />
<circle cx="106.48148148148148" cy="41.66666666666667" r="3.0864197530864197" fill="black" />
<circle cx="115.74074074074075" cy="41.66666666666667" r="3.0864197530864197" fill="black" />
<circle cx="134.25925925925927" cy="41.66666666666667" r="3.0864197530864197" fill="black" />
<circle cx="143.5185185185185" cy="41.66666666666667" r="3.0864197530864197" fill="black" />
<circle cx="152.77777777777777" cy="41.66666666666667" r="3.0864197530864197" fill="black" />
<circle cx="162.03703703703704" cy="41.66666666666667" r="3.0864197530864197" fill="black" />










<circle cx="115.74074074074075" cy="50.925925925925924" r="3.0864197530864197" fill="black" />
<circle cx="125.00000000000001" cy="50.925925925925924" r="3.0864197530864197" fill="black" />
<circle cx="162.03703703703704" cy="50.925925925925924" r="3.0864197530864197" fill="black" />







<circle cx="106.48148148148148" cy="60.18518518518519" r="3.0864197530864197" fill="black" />
<circle cx="115.74074074074075" cy="60.18518518518519" r="3.0864197530864197" fill="black" />
<circle cx="143.5185185185185" cy="60.18518518518519" r="3.0864197530864197" fill="black" />









<circle cx="87.96296296296298" cy="69.44444444444444" r="3.0864197530864197" fill="black" />
<circle cx="106.48148148148148" cy="69.44444444444444" r="3.0864197530864197" fill="black" />
<circle cx="125.00000000000001" cy="69.44444444444444" r="3.0864197530864197" fill="black" />
<circle cx="143.5185185185185" cy="69.44444444444444" r="3.0864197530864197" fill="black" />
<circle cx="162.03703703703704" cy="69.44444444444444" r="3.0864197530864197" fill="black" />







<circle cx="106.48148148148148" cy="78.70370370370371" r="3.0864197530864197" fill="black" />
<circle cx="115.74074074074075" cy="78.70370370370371" r="3.0864197530864197" fill="black" />
<circle cx="41.66666666666667" cy="87.96296296296298" r="3.0864197530864197" fill="black" />
<circle cx="50.925925925925924" cy="87.96296296296298" r="3.0864197530864197" fill="black" />
<circle cx="69.44444444444444" cy="87.96296296296298" r="3.0864197530864197" fill="black" />
<circle cx="78.70370370370371" cy="87.96296296296298" r="3.0864197530864197" fill="black" />
<circle cx="115.74074074074075" cy="87.96296296296298" r="3.0864197530864197" fill="black" />
<circle cx="125.00000000000001" cy="87.96296296296298" r="3.0864197530864197" fill="black" />
<circle cx="134.25925925925927" cy="87.96296296296298" r="3.0864197530864197" fill="black" />
<circle cx="143.5185185185185" cy="87.96296296296298" r="3.0864197530864197" fill="black" />
<circle cx="162.03703703703704" cy="87.96296296296298" r="3.0864197530864197" fill="black" />
<circle cx="208.33333333333334" cy="87.96296296296298" r="3.0864197530864197" fill="black" />
<circle cx="217.59259259259258" cy="87.96296296296298" r="3.0864197530864197" fill="black" />
<circle cx="32.407407407407405" cy="97.22222222222224" r="3.0864197530864197" fill="black" />
<circle cx="50.925925925925924" cy="97.22222222222224" r="3.0864197530864197" fill="black" />
<circle cx="78.70370370370371" cy="97.22222222222224" r="3.0864197530864197" fill="black" />
<circle cx="162.03703703703704" cy="97.22222222222224" r="3.0864197530864197" fill="black" />
<circle cx="171.2962962962963" cy="97.22222222222224" r="3.0864197530864197" fill="black" />
<circle cx="189.8148148148148" cy="97.22222222222224" r="3.0864197530864197" fill="black" />
<circle cx="199.07407407407408" cy="97.22222222222224" r="3.0864197530864197" fill="black" />
<circle cx="13.88888888888889" cy="106.48148148148148" r="3.0864197530864197" fill="black" />
<circle cx="32.407407407407405" cy="106.48148148148148" r="3.0864197530864197" fill="black" />
<circle cx="69.44444444444444" cy="106.48148148148148" r="3.0864197530864197" fill="black" />
<circle cx="78.70370370370371" cy="106.48148148148148" r="3.0864197530864197" fill="black" />
<circle cx="162.03703703703704" cy="106.48148148148148" r="3.0864197530864197" fill="black" />
<circle cx="180.55555555555557" cy="106.48148148148148" r="3.0864197530864197" fill="black" />
<circle cx="199.07407407407408" cy="106.48148148148148" r="3.0864197530864197" fill="black" />
<circle cx="208.33333333333334" cy="106.48148148148148" r="3.0864197530864197" fill="black" />
<circle cx="236.11111111111111" cy="106.48148148148148" r="3.0864197530864197" fill="black" />
<circle cx="23.14814814814815" cy="115.74074074074075" r="3.0864197530864197" fill="black" />
<circle cx="32.407407407407405" cy="115.74074074074075" r="3.0864197530864197" fill="black" />
<circle cx="50.925925925925924" cy="115.74074074074075" r="3.0864197530864197" fill="black" />
<circle cx="60.18518518518519" cy="115.74074074074075" r="3.0864197530864197" fill="black" />
<circle cx="87.96296296296298" cy="115.74074074074075" r="3.0864197530864197" fill="black" />
<circle cx="162.03703703703704" cy="115.74074074074075" r="3.0864197530864197" fill="black" />
<circle cx="180.55555555555557" cy="115.74074074074075" r="3.0864197530864197" fill="black" />
<circle cx="199.07407407407408" cy="115.74074074074075" r="3.0864197530864197" fill="black" />
<circle cx="217.59259259259258" cy="115.74074074074075" r="3.0864197530864197" fill="black" />
<circle cx="226.85185185185185" cy="115.74074074074075" r="3.0864197530864197" fill="black" />
<circle cx="236.11111111111111" cy="115.74074074074075" r="3.0864197530864197" fill="black" />
<circle cx="32.407407407407405" cy="125.00000000000001" r="3.0864197530864197" fill="black" />
<circle cx="41.66666666666667" cy="125.00000000000001" r="3.0864197530864197" fill="black" />
<circle cx="69.44444444444444" cy="125.00000000000001" r="3.0864197530864197" fill="black" />
<circle cx="180.55555555555557" cy="125.00000000000001" r="3.0864197530864197" fill="black" />
<circle cx="208.33333333333334" cy="125.00000000000001" r="3.0864197530864197" fill="black" />
<circle cx="236.11111111111111" cy="125.00000000000001" r="3.0864197530864197" fill="black" />
<circle cx="13.88888888888889" cy="134.25925925925927" r="3.0864197530864197" fill="black" />
<circle cx="23.14814814814815" cy="134.25925925925927" r="3.0864197530864197" fill="black" />
<circle cx="41.66666666666667" cy="134.25925925925927" r="3.0864197530864197" fill="black" />
<circle cx="60.18518518518519" cy="134.25925925925927" r="3.0864197530864197" fill="black" />
<circle cx="78.70370370370371" cy="134.25925925925927" r="3.0864197530864197" fill="black" />
<circle cx="189.8148148148148" cy="134.25925925925927" r="3.0864197530864197" fill="black" />
<circle cx="199.07407407407408" cy="134.25925925925927" r="3.0864197530864197" fill="black" />
<circle cx="208.33333333333334" cy="134.25925925925927" r="3.0864197530864197" fill="black" />
<circle cx="217.59259259259258" cy="134.25925925925927" r="3.0864197530864197" fill="black" />
<circle cx="226.85185185185185" cy="134.25925925925927" r="3.0864197530864197" fill="black" />
<circle cx="13.88888888888889" cy="143.5185185185185" r="3.0864197530864197" fill="black" />
<circle cx="23.14814814814815" cy="143.5185185185185" r="3.0864197530864197" fill="black" />
<circle cx="50.925925925925924" cy="143.5185185185185" r="3.0864197530864197" fill="black" />
<circle cx="60.18518518518519" cy="143.5185185185185" r="3.0864197530864197" fill="black" />
<circle cx="69.44444444444444" cy="143.5185185185185" r="3.0864197530864197" fill="black" />
<circle cx="87.96296296296298" cy="143.5185185185185" r="3.0864197530864197" fill="black" />
<circle cx="208.33333333333334" cy="143.5185185185185" r="3.0864197530864197" fill="black" />
<circle cx="226.85185185185185" cy="143.5185185185185" r="3.0864197530864197" fill="black" />
<circle cx="236.11111111111111" cy="143.5185185185185" r="3.0864197530864197" fill="black" />
<circle cx="13.88888888888889" cy="152.77777777777777" r="3.0864197530864197" fill="black" />
<circle cx="87.96296296296298" cy="152.77777777777777" r="3.0864197530864197" fill="black" />
<circle cx="162.03703703703704" cy="152.77777777777777" r="3.0864197530864197" fill="black" />
<circle cx="171.2962962962963" cy="152.77777777777777" r="3.0864197530864197" fill="black" />
<circle cx="199.07407407407408" cy="152.77777777777777" r="3.0864197530864197" fill="black" />
<circle cx="208.33333333333334" cy="152.77777777777777" r="3.0864197530864197" fill="black" />
<circle cx="217.59259259259258" cy="152.77777777777777" r="3.0864197530864197" fill="black" />
<circle cx="236.11111111111111" cy="152.77777777777777" r="3.0864197530864197" fill="black" />
<circle cx="13.88888888888889" cy="162.03703703703704" r="3.0864197530864197" fill="black" />
<circle cx="41.66666666666667" cy="162.03703703703704" r="3.0864197530864197" fill="black" />
<circle cx="50.925925925925924" cy="162.03703703703704" r="3.0864197530864197" fill="black" />
<circle cx="69.44444444444444" cy="162.03703703703704" r="3.0864197530864197" fill="black" />
<circle cx="78.70370370370371" cy="162.03703703703704" r="3.0864197530864197" fill="black" />
<circle cx="87.96296296296298" cy="162.03703703703704" r="3.0864197530864197" fill="black" />
<circle cx="125.00000000000001" cy="162.03703703703704" r="3.0864197530864197" fill="black" />
<circle cx="134.25925925925927" cy="162.03703703703704" r="3.0864197530864197" fill="black" />
<circle cx="152.77777777777777" cy="162.03703703703704" r="3.0864197530864197" fill="black" />
<circle cx="162.03703703703704" cy="162.03703703703704" r="3.0864197530864197" fill="black" />
<circle cx="171.2962962962963" cy="162.03703703703704" r="3.0864197530864197" fill="black" />
<circle cx="180.55555555555557" cy="162.03703703703704" r="3.0864197530864197" fill="black" />
<circle cx="189.8148148148148" cy="162.03703703703704" r="3.0864197530864197" fill="black" />
<circle cx="199.07407407407408" cy="162.03703703703704" r="3.0864197530864197" fill="black" />
<circle cx="208.33333333333334" cy="162.03703703703704" r="3.0864197530864197" fill="black" />
<circle cx="217.59259259259258" cy="162.03703703703704" r="3.0864197530864197" fill="black" />
<circle cx="226.85185185185185" cy="162.03703703703704" r="3.0864197530864197" fill="black" />
<circle cx="87.96296296296298" cy="171.2962962962963" r="3.0864197530864197" fill="black" />
<circle cx="115.74074074074075" cy="171.2962962962963" r="3.0864197530864197" fill="black" />
<circle cx="125.00000000000001" cy="171.2962962962963" r="3.0864197530864197" fill="black" />
<circle cx="162.03703703703704" cy="171.2962962962963" r="3.0864197530864197" fill="black" />
<circle cx="199.07407407407408" cy="171.2962962962963" r="3.0864197530864197" fill="black" />







<circle cx="87.96296296296298" cy="180.55555555555557" r="3.0864197530864197" fill="black" />
<circle cx="106.48148148148148" cy="180.55555555555557" r="3.0864197530864197" fill="black" />
<circle cx="125.00000000000001" cy="180.55555555555557" r="3.0864197530864197" fill="black" />
<circle cx="143.5185185185185" cy="180.55555555555557" r="3.0864197530864197" fill="black" />
<circle cx="152.77777777777777" cy="180.55555555555557" r="3.0864197530864197" fill="black" />
<circle cx="162.03703703703704" cy="180.55555555555557" r="3.0864197530864197" fill="black" />
<circle cx="180.55555555555557" cy="180.55555555555557" r="3.0864197530864197" fill="black" />
<circle cx="199.07407407407408" cy="180.55555555555557" r="3.0864197530864197" fill="black" />
<circle cx="217.59259259259258" cy="180.55555555555557" r="3.0864197530864197" fill="black" />
<circle cx="226.85185185185185" cy="180.55555555555557" r="3.0864197530864197" fill="black" />
<circle cx="236.11111111111111" cy="180.55555555555557" r="3.0864197530864197" fill="black" />


<circle cx="97.22222222222224" cy="189.8148148148148" r="3.0864197530864197" fill="black" />
<circle cx="106.48148148148148" cy="189.8148148148148" r="3.0864197530864197" fill="black" />
<circle cx="152.77777777777777" cy="189.8148148148148" r="3.0864197530864197" fill="black" />
<circle cx="162.03703703703704" cy="189.8148148148148" r="3.0864197530864197" fill="black" />
<circle cx="199.07407407407408" cy="189.8148148148148" r="3.0864197530864197" fill="black" />
<circle cx="208.33333333333334" cy="189.8148148148148" r="3.0864197530864197" fill="black" />
<circle cx="236.11111111111111" cy="189.8148148148148" r="3.0864197530864197" fill="black" />





<circle cx="87.96296296296298" cy="199.07407407407408" r="3.0864197530864197" fill="black" />
<circle cx="106.48148148148148" cy="199.07407407407408" r="3.0864197530864197" fill="black" />
<circle cx="115.74074074074075" cy="199.07407407407408" r="3.0864197530864197" fill="black" />
<circle cx="134.25925925925927" cy="199.07407407407408" r="3.0864197530864197" fill="black" />
<circle cx="162.03703703703704" cy="199.07407407407408" r="3.0864197530864197" fill="black" />
<circle cx="171.2962962962963" cy="199.07407407407408" r="3.0864197530864197" fill="black" />
<circle cx="180.55555555555557" cy="199.07407407407408" r="3.0864197530864197" fill="black" />
<circle cx="189.8148148148148" cy="199.07407407407408" r="3.0864197530864197" fill="black" />
<circle cx="199.07407407407408" cy="199.07407407407408" r="3.0864197530864197" fill="black" />
<circle cx="208.33333333333334" cy="199.07407407407408" r="3.0864197530864197" fill="black" />
<circle cx="226.85185185185185" cy="199.07407407407408" r="3.0864197530864197" fill="black" />





<circle cx="87.96296296296298" cy="208.33333333333334" r="3.0864197530864197" fill="black" />
<circle cx="97.22222222222224" cy="208.33333333333334" r="3.0864197530864197" fill="black" />
<circle cx="106.48148148148148" cy="208.33333333333334" r="3.0864197530864197" fill="black" />
<circle cx="171.2962962962963" cy="208.33333333333334" r="3.0864197530864197" fill="black" />
<circle cx="180.55555555555557" cy="208.33333333333334" r="3.0864197530864197" fill="black" />
<circle cx="189.8148148148148" cy="208.33333333333334" r="3.0864197530864197" fill="black" />
<circle cx="208.33333333333334" cy="208.33333333333334" r="3.0864197530864197" fill="black" />
<circle cx="236.11111111111111" cy="208.33333333333334" r="3.0864197530864197" fill="black" />





<circle cx="97.22222222222224" cy="217.59259259259258" r="3.0864197530864197" fill="black" />
<circle cx="125.00000000000001" cy="217.59259259259258" r="3.0864197530864197" fill="black" />
<circle cx="134.25925925925927" cy="217.59259259259258" r="3.0864197530864197" fill="black" />
<circle cx="143.5185185185185" cy="217.59259259259258" r="3.0864197530864197" fill="black" />
<circle cx="162.03703703703704" cy="217.59259259259258" r="3.0864197530864197" fill="black" />
<circle cx="171.2962962962963" cy="217.59259259259258" r="3.0864197530864197" fill="black" />
<circle cx="189.8148148148148" cy="217.59259259259258" r="3.0864197530864197" fill="black" />
<circle cx="199.07407407407408" cy="217.59259259259258" r="3.0864197530864197" fill="black" />
<circle cx="217.59259259259258" cy="217.59259259259258" r="3.0864197530864197" fill="black" />
<circle cx="226.85185185185185" cy="217.59259259259258" r="3.0864197530864197" fill="black" />
<circle cx="236.11111111111111" cy="217.59259259259258" r="3.0864197530864197" fill="black" />


<circle cx="97.22222222222224" cy="226.85185185185185" r="3.0864197530864197" fill="black" />
<circle cx="125.00000000000001" cy="226.85185185185185" r="3.0864197530864197" fill="black" />
<circle cx="134.25925925925927" cy="226.85185185185185" r="3.0864197530864197" fill="black" />
<circle cx="143.5185185185185" cy="226.85185185185185" r="3.0864197530864197" fill="black" />
<circle cx="162.03703703703704" cy="226.85185185185185" r="3.0864197530864197" fill="black" />
<circle cx="171.2962962962963" cy="226.85185185185185" r="3.0864197530864197" fill="black" />
<circle cx="189.8148148148148" cy="226.85185185185185" r="3.0864197530864197" fill="black" />
<circle cx="199.07407407407408" cy="226.85185185185185" r="3.0864197530864197" fill="black" />
<circle cx="217.59259259259258" cy="226.85185185185185" r="3.0864197530864197" fill="black" />
<circle cx="226.85185185185185" cy="226.85185185185185" r="3.0864197530864197" fill="black" />
<circle cx="236.11111111111111" cy="226.85185185185185" r="3.0864197530864197" fill="black" />







<circle cx="106.48148148148148" cy="236.11111111111111" r="3.0864197530864197" fill="black" />
<circle cx="134.25925925925927" cy="236.11111111111111" r="3.0864197530864197" fill="black" />
<circle cx="143.5185185185185" cy="236.11111111111111" r="3.0864197530864197" fill="black" />
<circle cx="152.77777777777777" cy="236.11111111111111" r="3.0864197530864197" fill="black" />
<circle cx="162.03703703703704" cy="236.11111111111111" r="3.0864197530864197" fill="black" />
<circle cx="208.33333333333334" cy="236.11111111111111" r="3.0864197530864197" fill="black" />
<circle cx="236.11111111111111" cy="236.11111111111111" r="3.0864197530864197" fill="black" />
<rect x="194.44444444444446" y="27.777777777777782" rx="4.62962962962963" width="27.77777777777778" height="27.77777777777778" fill="black"/>
<rect x="27.777777777777782" y="27.777777777777782" rx="4.62962962962963" width="27.77777777777778" height="27.77777777777778" fill="black"/>
<rect x="27.777777777777782" y="194.44444444444446" rx="4.62962962962963" width="27.77777777777778" height="27.77777777777778" fill="black"/>
<path fill="black" d="M 180.55555555555554 9.259259259259267
    h 55.55555555555555 q 4.629629629629629 0 4.629629629629629 4.629629629629629
                                v 55.55555555555555 q 0 4.629629629629629 -4.629629629629629 4.629629629629629
                                h -55.55555555555555 q -4.629629629629629 0 -4.629629629629629 -4.629629629629629
                                v -55.55555555555555 q 0 -4.629629629629629 4.629629629629629 -4.629629629629629 l 9.259259259259258 9.259259259259258 
    q -4.629629629629629 0 -4.629629629629629 4.629629629629629 v 37.03703703703703
                                 q 0 4.629629629629629 4.629629629629629 4.629629629629629 h 37.03703703703703
                                 q 4.629629629629629 0 4.629629629629629 -4.629629629629629 v -37.03703703703703
                                 q 0 -4.629629629629629 -4.629629629629629 -4.629629629629629 h -37.03703703703703 l -9.259259259259258 -9.259259259259258" />
<path fill="black" d="M 13.888888888888896 9.259259259259267
    h 55.55555555555555 q 4.629629629629629 0 4.629629629629629 4.629629629629629
                                v 55.55555555555555 q 0 4.629629629629629 -4.629629629629629 4.629629629629629
                                h -55.55555555555555 q -4.629629629629629 0 -4.629629629629629 -4.629629629629629
                                v -55.55555555555555 q 0 -4.629629629629629 4.629629629629629 -4.629629629629629 l 9.259259259259258 9.259259259259258 
    q -4.629629629629629 0 -4.629629629629629 4.629629629629629 v 37.03703703703703
                                 q 0 4.629629629629629 4.629629629629629 4.629629629629629 h 37.03703703703703
                                 q 4.629629629629629 0 4.629629629629629 -4.629629629629629 v -37.03703703703703
                                 q 0 -4.629629629629629 -4.629629629629629 -4.629629629629629 h -37.03703703703703 l -9.259259259259258 -9.259259259259258" />
<path fill="black" d="M 13.888888888888896 175.92592592592592
    h 55.55555555555555 q 4.629629629629629 0 4.629629629629629 4.629629629629629
                                v 55.55555555555555 q 0 4.629629629629629 -4.629629629629629 4.629629629629629
                                h -55.55555555555555 q -4.629629629629629 0 -4.629629629629629 -4.629629629629629
                                v -55.55555555555555 q 0 -4.629629629629629 4.629629629629629 -4.629629629629629 l 9.259259259259258 9.259259259259258 
    q -4.629629629629629 0 -4.629629629629629 4.629629629629629 v 37.03703703703703
                                 q 0 4.629629629629629 4.629629629629629 4.629629629629629 h 37.03703703703703
                                 q 4.629629629629629 0 4.629629629629629 -4.629629629629629 v -37.03703703703703
                                 q 0 -4.629629629629629 -4.629629629629629 -4.629629629629629 h -37.03703703703703 l -9.259259259259258 -9.259259259259258" />
    </clipPath>
    <linearGradient id="gradz12z225" x1="1" y1="0" x2="0" y2="0">
        <stop offset="0" stop-color="#ffffff" stop-opacity="1" />
        <stop offset="1" stop-color="#ffffff" stop-opacity="1" />
      </linearGradient>
    <rect fill="url(#gradz12z225)" clip-path="url(#clipz12z225)" x="0" y="0" height="250" width="250" />
  
    
    <linearGradient id="logoGrad" x1="1" y1="0" x2="0" y2="0" gradientTransform="translate(-1, -1) scale(4.166666666666667)">
      <stop offset="0" stop-color="#ffffff" stop-opacity="1" />
      <stop offset="1" stop-color="#ffffff" stop-opacity="1" />
    </linearGradient>
    <g transform="translate(95,95) scale(2.926829268292683)">
      <path fill="url(#logoGrad)" d="M 19,20.5 H 1.6 C 0.7,20.5 0,19.7 0,18.8 V 1.7 C 0,0.8 0.7,0 1.6,0 H 19 c 0.9,0 1.6,0.8 1.6,1.7 v 17.1 c 0,0.9 -0.7,1.7 -1.6,1.7 z 
      M 1.6,0.3 C 0.9,0.3 0.3,0.9 0.3,1.6 v 17.1 c 0,0.7 0.6,1.3 1.3,1.3 H 19 c 0.7,0 1.3,-0.6 1.3,-1.3 V 1.7 C 20.3,1 19.7,0.4 19,0.4 H 1.6 Z m 1.6,13.5 c 0,-2.3 
      0,-4.7 0,-7 0,0 0,0 0,0 0.1,-0.6 0.5,-0.9 1.1,-0.9 1.1,0 2.2,0 3.3,0 0,0 0.1,0 0.1,0 0,-0.2 0,-0.4 0,-0.6 0,-0.1 0,-0.3 0.2,-0.3 1.5,0 3.1,0 4.6,0 0.1,0.1 
      0.2,0.2 0.2,0.3 0,0.1 0,0.1 0,0.2 0,0.1 0,0.3 0,0.4 0,0 0.1,0 0.1,0 1.2,0 2.4,0 3.6,0 0.6,0 1,0.5 1,1 0,2.3 0,4.5 0,6.8 0,0.6 -0.5,1 -1,1 -4.1,0 -8.1,0 
      -12.2,0 -0.4,0 -0.8,-0.3 -1,-0.7 0,0 0,-0.1 0,-0.2 z m 9.9,-3.4 c 0,-1.6 -1.3,-2.8 -2.8,-2.8 -1.5,0 -2.8,1.3 -2.8,2.8 0,1.6 1.3,2.8 2.8,2.8 1.5,0 2.8,-1.2 
      2.8,-2.8 z m -4.4,0 c 0,0.9 0.7,1.6 1.6,1.6 0.9,0 1.6,-0.7 1.6,-1.6 0,-0.9 -0.7,-1.6 -1.6,-1.6 -0.9,0 -1.6,0.7 -1.6,1.6 z M 2.3,5 V 2.8 C 2.3,2.5 2.5,2.3 
      2.8,2.3 h 2 C 5.1,2.3 5.3,2.1 5.3,1.8 5.3,1.5 5.1,1.3 4.8,1.3 h -2 C 2,1.3 1.4,1.9 1.4,2.7 V 5 C 1.4,5.3 1.6,5.5 1.9,5.5 2.1,5.4 2.3,5.2 2.3,5 Z M 1.8,15.1 
      c -0.3,0 -0.5,0.2 -0.5,0.5 v 2.2 c 0,0.8 0.6,1.4 1.4,1.4 h 2 C 5,19.2 5.2,19 5.2,18.7 5.2,18.4 5,18.2 4.7,18.2 h -2 C 2.4,18.2 2.2,18 2.2,17.7 V 15.5 
      C 2.3,15.3 2.1,15.1 1.8,15.1 Z m 17,-9.7 c 0.3,0 0.5,-0.2 0.5,-0.5 V 2.7 c 0,-0.8 -0.6,-1.4 -1.4,-1.4 h -2 c -0.3,0 -0.5,0.2 -0.5,0.5 0,0.3 0.2,0.5 0.5,0.5 
      h 2 c 0.3,0 0.5,0.2 0.5,0.5 V 5 c -0.1,0.2 0.1,0.4 0.4,0.4 z m -0.5,10.1 v 2.2 c 0,0.3 -0.2,0.5 -0.5,0.5 h -2 c -0.3,0 -0.5,0.2 -0.5,0.5 0,0.3 0.2,0.5 0.5,0.5 
      h 2 c 0.8,0 1.4,-0.6 1.4,-1.4 v -2.2 c 0,-0.3 -0.2,-0.5 -0.5,-0.5 -0.3,0 -0.4,0.2 -0.4,0.4 z" />
    </g>
    </svg>