<svg width="400" height="400" xmlns="http://www.w3.org/2000/svg" preserveAspectRatio="xMidYMid meet">
  <g id="svg_1" fill="#ffffff" transform="translate(0,400) scale(0.10000000149011612,-0.10000000149011612) ">
    <path stroke="null" id="svg_3" d="m221.25011,3791.612c-11.42961,-14.28701 -10.00091,-40.00363 5.7148,-97.15168c12.85831,-42.86104 95.72298,-378.60582 187.15986,-748.63943c207.16167,-844.36241 627.19982,-2548.80294 651.48774,-2643.09721c11.42961,-41.43234 27.14533,-72.86377 40.00364,-75.72117c12.85831,-1.4287 214.30518,180.01635 478.6149,435.75387c732.92371,704.34969 1917.317,1843.02454 2054.47232,1974.46505c68.57766,67.14896 124.297,130.01181 124.297,140.01272c0,27.14532 -15.71571,32.86013 -542.90645,184.30245c-262.88102,74.29247 -645.77294,184.30246 -850.07721,244.30791c-204.30427,58.57675 -390.03543,112.86739 -414.32335,118.5822c-22.85922,5.7148 -414.32335,117.1535 -867.22163,248.59401c-454.32698,130.0118 -831.50409,237.16439 -838.6476,237.16439c-7.14351,0 -18.57312,-8.5722 -28.57402,-18.57311zm195.73206,-108.58129c250.02271,-70.00636 610.05541,-177.15895 615.77022,-181.44505c8.5722,-8.57221 -514.33244,-512.90373 -532.90555,-512.90373c-10.00091,0 -151.44233,522.90463 -192.87466,718.6367c-1.4287,5.7148 14.28701,2.8574 110.00999,-24.28792zm1168.67758,-335.74478c172.87284,-48.57584 310.02816,-95.72298 305.74206,-102.86649c-20.00182,-35.71753 -520.04724,-504.33152 -528.61945,-495.75931c-10.00091,11.4296 -171.44414,660.05995 -171.44414,690.06267c0,21.43052 12.85831,18.57312 394.32153,-91.43687zm-387.17803,-292.88375c45.71844,-181.44505 80.00727,-332.88738 77.14987,-337.17348c-2.8574,-2.8574 -165.72934,41.43233 -361.4614,97.15168l-355.7466,102.86649l270.02452,261.45232c225.73479,220.01998 270.02453,257.16621 278.59674,234.30699c5.7148,-14.28701 47.14714,-175.73025 91.43687,-358.604zm1132.96005,78.57857c147.15623,-42.86104 305.74206,-88.57948 352.8892,-101.43779l85.72207,-24.28792l-271.45323,-261.45232c-148.58492,-144.29882 -272.88192,-260.02362 -275.73933,-257.16621c-5.7148,5.7148 -174.30154,690.06268 -174.30154,708.63579c0,18.57312 -10.00091,20.00182 282.88283,-64.29155zm-274.31063,-317.17167c44.28974,-184.30245 78.57857,-337.17348 75.72117,-341.45958c-5.71481,-5.71481 -697.20619,187.15985 -707.2071,197.16076c-2.8574,1.4287 115.7248,118.5822 261.45232,258.59492c182.87376,177.15895 268.59583,250.02271 275.73934,237.1644c5.7148,-10.00091 48.57584,-168.58675 94.29427,-351.4605zm1224.39693,42.86104c182.87375,-51.43325 335.74478,-98.58039 342.88829,-104.29519c5.7148,-5.7148 -111.4387,-128.58311 -261.45232,-271.45323c-168.58674,-162.87193 -274.31063,-254.30881 -278.59674,-241.4505c-4.2861,14.28701 -125.7257,504.33152 -171.44414,695.77748c-7.1435,27.14533 -4.2861,31.43143 14.28701,24.28792c12.85831,-4.2861 172.87285,-51.43324 354.3179,-102.86648zm-365.74751,-272.88193c48.57584,-195.73207 81.43597,-357.1753 74.29247,-358.604c-12.85831,-5.71481 -684.34788,181.44505 -698.63489,194.30336c-7.14351,5.71481 514.33243,515.76113 528.61944,517.18983c4.28611,0 47.14714,-158.58583 95.72298,-352.88919zm-2095.90465,174.30154c114.29609,-34.28882 257.16621,-75.72116 318.60036,-92.86557c60.00545,-18.57312 110.01,-37.14623 110.01,-41.43234c0,-21.43052 -531.47685,-518.61853 -541.47776,-507.18892c-10.00091,11.42961 -48.57584,158.58583 -167.15804,645.77294l-17.14441,75.72116l44.28974,-10.00091c25.71662,-5.7148 138.58401,-37.14623 252.88011,-70.00636zm962.9446,-275.73933l340.03089,-97.15168l-264.30972,-255.73751c-144.29882,-140.01272 -268.59583,-252.88011 -274.31063,-252.88011c-7.14351,1.4287 -51.43325,160.01453 -98.58038,352.88919c-71.43506,284.31154 -82.86467,350.03179 -65.72026,350.03179c11.42961,0 174.30155,-44.28973 362.8901,-97.15168zm-375.74841,-270.02452c45.71844,-187.15986 84.29337,-350.0318 84.29337,-362.89011c0,-20.00181 -61.43415,-5.7148 -358.604,80.00727c-197.16077,57.14805 -360.0327,107.15259 -361.4614,110.00999c-5.71481,7.14351 538.62035,527.19074 545.76385,520.04724c2.85741,-4.28611 44.28974,-160.01454 90.00818,-347.17439zm1247.25614,15.71571l342.88829,-97.15168l-271.45323,-261.45232c-148.58492,-142.87012 -274.31063,-261.45232 -278.59673,-261.45232c-8.57221,0 -184.30245,682.91917 -184.30245,715.7793c0,8.57221 11.42961,12.85831 25.71662,8.57221c12.85831,-2.8574 178.58765,-50.00454 365.7475,-104.29519zm-462.89918,55.71935c0,-14.28701 38.57493,-177.15895 84.29337,-361.46141c47.14714,-184.30245 82.86467,-337.17348 81.43597,-340.03088c-5.71481,-4.2861 -712.9219,198.58947 -722.92281,207.16167c-10.00091,8.57221 518.61853,517.18984 540.04905,517.18984c8.57221,1.4287 17.14442,-10.00091 17.14442,-22.85922zm-1091.52772,-427.18166c180.01635,-51.43324 335.74478,-95.72298 347.17439,-100.00908c11.42961,-2.85741 -81.43597,-104.29519 -241.4505,-260.02362c-142.87012,-138.58402 -265.73842,-254.30882 -271.45323,-257.16622c-5.7148,-2.8574 -14.28701,5.71481 -18.57311,17.14442c-11.42961,30.00272 -167.15804,664.34605 -167.15804,681.49047c0,20.00181 0,20.00181 351.46049,-81.43597zm900.08176,-260.02362c282.88283,-81.43597 328.60127,-98.58038 315.74296,-117.1535c-20.00182,-28.57402 -514.33243,-501.47412 -518.61853,-495.75931c-7.14351,5.7148 -177.15895,692.92008 -177.15895,711.49319c0,8.57221 10.00091,11.42961 24.28792,7.14351c12.85831,-5.7148 172.87284,-52.86194 355.7466,-105.72389zm-374.31972,-271.45323c45.71844,-182.87375 80.00727,-338.60218 77.14987,-344.31698c-2.85741,-5.71481 -162.87194,34.28882 -357.1753,90.00817c-194.30336,55.71935 -352.8892,104.29519 -350.0318,108.58129c1.42871,4.28611 121.43961,121.4396 265.73843,261.45232c180.01635,174.30155 267.16712,248.59401 274.31063,235.7357c4.2861,-10.00091 45.71844,-168.58674 90.00817,-351.4605zm-294.31244,-332.88738c194.30336,-55.71934 355.74659,-104.29518 358.604,-107.15258c7.1435,-7.14351 11.42961,-2.85741 -318.60037,-320.02907c-215.73388,-207.16168 -228.59219,-217.16259 -240.0218,-184.30246c-38.57493,120.0109 -177.15895,712.9219 -165.72934,712.9219c8.57221,0 172.87284,-45.71844 365.74751,-101.43779z"/>
  </g>
</svg>